<svg width="27" height="27" viewBox="0 0 27 27" fill="none" xmlns="http://www.w3.org/2000/svg">
<path d="M24.375 0.625C24.8828 0.625 25.3125 0.820312 25.6641 1.21094C26.0547 1.5625 26.25 1.99219 26.25 2.5V25C26.25 25.5078 26.0547 25.9375 25.6641 26.2891C25.3125 26.6797 24.8828 26.875 24.375 26.875H1.875C1.36719 26.875 0.917969 26.6797 0.527344 26.2891C0.175781 25.9375 0 25.5078 0 25V2.5C0 1.99219 0.175781 1.5625 0.527344 1.21094C0.917969 0.820312 1.36719 0.625 1.875 0.625H24.375ZM7.91016 23.125H7.96875V10.5859H4.04297V23.125H7.91016ZM4.39453 8.24219C4.82422 8.67187 5.35156 8.88672 5.97656 8.88672C6.60156 8.88672 7.12891 8.67187 7.55859 8.24219C8.02734 7.77344 8.26172 7.24609 8.26172 6.66016C8.26172 6.03516 8.02734 5.50781 7.55859 5.07812C7.12891 4.60938 6.60156 4.375 5.97656 4.375C5.35156 4.375 4.82422 4.60938 4.39453 5.07812C3.96484 5.50781 3.75 6.03516 3.75 6.66016C3.75 7.24609 3.96484 7.77344 4.39453 8.24219ZM22.5 23.125V16.2695C22.5 15.332 22.4414 14.5312 22.3242 13.8672C22.207 13.2031 21.9922 12.5977 21.6797 12.0508C21.3672 11.4648 20.8789 11.0352 20.2148 10.7617C19.5898 10.4492 18.8086 10.293 17.8711 10.293C16.9727 10.293 16.1914 10.4883 15.5273 10.8789C14.9023 11.2695 14.4531 11.7383 14.1797 12.2852H14.1211V10.5859H10.3711V23.125H14.2969V16.9141C14.2969 15.9375 14.4531 15.1562 14.7656 14.5703C15.0781 13.9844 15.6836 13.6914 16.582 13.6914C17.0508 13.6914 17.4414 13.7891 17.7539 13.9844C18.0664 14.1797 18.2617 14.4727 18.3398 14.8633C18.457 15.2539 18.5352 15.6055 18.5742 15.918C18.6133 16.1914 18.6328 16.5625 18.6328 17.0312V23.125H22.5Z" fill="white"/>
</svg>
