<svg width="27" height="27" viewBox="0 0 27 27" fill="none" xmlns="http://www.w3.org/2000/svg">
<path d="M8.37891 9.00391C9.70703 7.67578 11.3086 7.01172 13.1836 7.01172C15.0586 7.01172 16.6406 7.67578 17.9297 9.00391C19.2578 10.293 19.9219 11.875 19.9219 13.75C19.9219 15.625 19.2578 17.2266 17.9297 18.5547C16.6406 19.8438 15.0586 20.4883 13.1836 20.4883C11.3086 20.4883 9.70703 19.8438 8.37891 18.5547C7.08984 17.2266 6.44531 15.625 6.44531 13.75C6.44531 11.875 7.08984 10.293 8.37891 9.00391ZM10.0781 16.8555C10.9375 17.7148 11.9727 18.1445 13.1836 18.1445C14.3945 18.1445 15.4297 17.7148 16.2891 16.8555C17.1484 15.9961 17.5781 14.9609 17.5781 13.75C17.5781 12.5391 17.1484 11.5039 16.2891 10.6445C15.4297 9.78516 14.3945 9.35547 13.1836 9.35547C11.9727 9.35547 10.9375 9.78516 10.0781 10.6445C9.21875 11.5039 8.78906 12.5391 8.78906 13.75C8.78906 14.9609 9.21875 15.9961 10.0781 16.8555ZM21.2695 5.66406C21.582 5.9375 21.7383 6.28906 21.7383 6.71875C21.7383 7.14844 21.582 7.51953 21.2695 7.83203C20.9961 8.14453 20.6445 8.30078 20.2148 8.30078C19.7852 8.30078 19.4141 8.14453 19.1016 7.83203C18.7891 7.51953 18.6328 7.14844 18.6328 6.71875C18.6328 6.28906 18.7891 5.9375 19.1016 5.66406C19.4141 5.35156 19.7852 5.19531 20.2148 5.19531C20.6445 5.19531 20.9961 5.35156 21.2695 5.66406ZM26.25 8.35938C26.2891 9.41406 26.3086 11.2109 26.3086 13.75C26.3086 16.2891 26.2891 18.0859 26.25 19.1406C26.1328 21.5234 25.4102 23.3789 24.082 24.707C22.793 25.9961 20.957 26.6797 18.5742 26.7578C17.5195 26.8359 15.7227 26.875 13.1836 26.875C10.6445 26.875 8.84766 26.8359 7.79297 26.7578C5.41016 26.6406 3.57422 25.9375 2.28516 24.6484C1.77734 24.1797 1.36719 23.6328 1.05469 23.0078C0.742188 22.3828 0.507812 21.7773 0.351562 21.1914C0.234375 20.6055 0.175781 19.9219 0.175781 19.1406C0.0976562 18.0859 0.0585938 16.2891 0.0585938 13.75C0.0585938 11.2109 0.0976562 9.39453 0.175781 8.30078C0.292969 5.95703 0.996094 4.14062 2.28516 2.85156C3.57422 1.52344 5.41016 0.800781 7.79297 0.683594C8.84766 0.644531 10.6445 0.625 13.1836 0.625C15.7227 0.625 17.5195 0.644531 18.5742 0.683594C20.957 0.800781 22.793 1.52344 24.082 2.85156C25.4102 4.14062 26.1328 5.97656 26.25 8.35938ZM23.4375 21.4844C23.5547 21.1719 23.6523 20.7812 23.7305 20.3125C23.8086 19.8047 23.8672 19.2188 23.9062 18.5547C23.9453 17.8516 23.9648 17.2852 23.9648 16.8555C23.9648 16.4258 23.9648 15.8203 23.9648 15.0391C23.9648 14.2578 23.9648 13.8281 23.9648 13.75C23.9648 13.6328 23.9648 13.2031 23.9648 12.4609C23.9648 11.6797 23.9648 11.0742 23.9648 10.6445C23.9648 10.2148 23.9453 9.66797 23.9062 9.00391C23.8672 8.30078 23.8086 7.71484 23.7305 7.24609C23.6523 6.73828 23.5547 6.32812 23.4375 6.01562C22.9688 4.80469 22.1289 3.96484 20.918 3.49609C20.6055 3.37891 20.1953 3.28125 19.6875 3.20312C19.2188 3.125 18.6328 3.06641 17.9297 3.02734C17.2656 2.98828 16.7188 2.96875 16.2891 2.96875C15.8984 2.96875 15.293 2.96875 14.4727 2.96875C13.6914 2.96875 13.2617 2.96875 13.1836 2.96875C13.1055 2.96875 12.6758 2.96875 11.8945 2.96875C11.1133 2.96875 10.5078 2.96875 10.0781 2.96875C9.64844 2.96875 9.08203 2.98828 8.37891 3.02734C7.71484 3.06641 7.12891 3.125 6.62109 3.20312C6.15234 3.28125 5.76172 3.37891 5.44922 3.49609C4.23828 3.96484 3.39844 4.80469 2.92969 6.01562C2.8125 6.32812 2.71484 6.73828 2.63672 7.24609C2.55859 7.71484 2.5 8.30078 2.46094 9.00391C2.42188 9.66797 2.40234 10.2148 2.40234 10.6445C2.40234 11.0352 2.40234 11.6406 2.40234 12.4609C2.40234 13.2422 2.40234 13.6719 2.40234 13.75C2.40234 13.9062 2.40234 14.2773 2.40234 14.8633C2.40234 15.4102 2.40234 15.8789 2.40234 16.2695C2.40234 16.6211 2.40234 17.0898 2.40234 17.6758C2.44141 18.2617 2.48047 18.7695 2.51953 19.1992C2.55859 19.5898 2.61719 20 2.69531 20.4297C2.77344 20.8594 2.85156 21.2109 2.92969 21.4844C3.4375 22.6953 4.27734 23.5352 5.44922 24.0039C5.76172 24.1211 6.15234 24.2188 6.62109 24.2969C7.12891 24.375 7.71484 24.4336 8.37891 24.4727C9.08203 24.5117 9.62891 24.5312 10.0195 24.5312C10.4492 24.5312 11.0547 24.5312 11.8359 24.5312C12.6562 24.5312 13.1055 24.5312 13.1836 24.5312C13.3008 24.5312 13.7305 24.5312 14.4727 24.5312C15.2539 24.5312 15.8594 24.5312 16.2891 24.5312C16.7188 24.5312 17.2656 24.5117 17.9297 24.4727C18.6328 24.4336 19.2188 24.375 19.6875 24.2969C20.1953 24.2188 20.6055 24.1211 20.918 24.0039C22.1289 23.4961 22.9688 22.6562 23.4375 21.4844Z" fill="white"/>
</svg>
