<svg width="30" height="25" viewBox="0 0 30 25" fill="none" xmlns="http://www.w3.org/2000/svg">
<path d="M26.8945 6.65625C26.9336 6.8125 26.9531 7.06641 26.9531 7.41797C26.9531 9.48828 26.5625 11.5586 25.7812 13.6289C25 15.6602 23.8867 17.5352 22.4414 19.2539C21.0352 20.9336 19.1992 22.3008 16.9336 23.3555C14.668 24.4102 12.168 24.9375 9.43359 24.9375C5.99609 24.9375 2.85156 24.0195 0 22.1836C0.429688 22.2227 0.917969 22.2422 1.46484 22.2422C4.31641 22.2422 6.875 21.3633 9.14062 19.6055C7.77344 19.6055 6.5625 19.2148 5.50781 18.4336C4.49219 17.6133 3.78906 16.5977 3.39844 15.3867C3.78906 15.4258 4.16016 15.4453 4.51172 15.4453C5.05859 15.4453 5.60547 15.3867 6.15234 15.2695C5.21484 15.0742 4.375 14.6836 3.63281 14.0977C2.89062 13.5117 2.30469 12.8086 1.875 11.9883C1.44531 11.1289 1.23047 10.2109 1.23047 9.23438V9.11719C2.08984 9.625 3.00781 9.89844 3.98438 9.9375C2.14844 8.6875 1.23047 6.96875 1.23047 4.78125C1.23047 3.6875 1.52344 2.65234 2.10938 1.67578C3.63281 3.58984 5.48828 5.11328 7.67578 6.24609C9.90234 7.37891 12.2656 8.00391 14.7656 8.12109C14.6875 7.65234 14.6484 7.18359 14.6484 6.71484C14.6484 5.03516 15.2344 3.58984 16.4062 2.37891C17.6172 1.16797 19.0625 0.5625 20.7422 0.5625C22.5391 0.5625 24.043 1.20703 25.2539 2.49609C26.6602 2.22266 27.9688 1.73438 29.1797 1.03125C28.7109 2.47656 27.8125 3.60938 26.4844 4.42969C27.6562 4.27344 28.8281 3.94141 30 3.43359C29.1406 4.68359 28.1055 5.75781 26.8945 6.65625Z" fill="white"/>
</svg>
